<?xml version="1.0" encoding="utf-8"?>
<!-- Generator: Adobe Illustrator 20.0.0, SVG Export Plug-In . SVG Version: 6.00 Build 0)  -->
<!DOCTYPE svg PUBLIC "-//W3C//DTD SVG 1.1//EN" "http://www.w3.org/Graphics/SVG/1.1/DTD/svg11.dtd">
<svg version="1.1" id="Layer_1" xmlns="http://www.w3.org/2000/svg" xmlns:xlink="http://www.w3.org/1999/xlink" x="0px" y="0px"
	 viewBox="0 0 3999.318 4000" enable-background="new 0 0 3999.318 4000" xml:space="preserve">
<g>
	<g>
		<path d="M3716.973,2000.006h282.345c-11.487,936.526-611.041,1651.853-1381.646,1902.141l-87.195-268.544
			C3184.947,3421.283,3706.3,2812.716,3716.973,2000.006z"/>
		<path fill="none" stroke="#FFFFFF" stroke-width="4.6462" stroke-miterlimit="10" d="M2610.497,3880.051
			c774.648-251.523,1354.318-967.258,1365.589-1880.045"/>
		<path fill="none" stroke="#FFFFFF" stroke-width="4.6462" stroke-miterlimit="10" d="M2537.651,3655.699
			c679.99-220.681,1192.015-848.873,1202.552-1655.693"/>
		<g>
			
				<line fill="none" stroke="#FFFFFF" stroke-width="11.6155" stroke-miterlimit="10" x1="2574.074" y1="3767.875" x2="2586.654" y2="3763.791"/>
			<path fill="none" stroke="#FFFFFF" stroke-width="11.6155" stroke-miterlimit="10" stroke-dasharray="28.1349,42.2023" d="
				M2624.5,3750.711c700.978-246.868,1223.212-926.212,1233.224-1717.459"/>
			
				<line fill="none" stroke="#FFFFFF" stroke-width="11.6155" stroke-miterlimit="10" x1="3857.978" y1="2013.231" x2="3858.145" y2="2000.006"/>
		</g>
	</g>
	<g>
		<path d="M2530.477,3633.603l87.195,268.544c-803.446,260.759-1707.564-5.717-2235.724-726.707l228.289-166.14
			C1064.76,3630.587,1843.568,3856.771,2530.477,3633.603z"/>
		<path fill="none" stroke="#FFFFFF" stroke-width="4.6462" stroke-miterlimit="10" d="M400.731,3161.77
			c525.889,717.966,1422.313,973.865,2209.766,718.282"/>
		<path fill="none" stroke="#FFFFFF" stroke-width="4.6462" stroke-miterlimit="10" d="M591.453,3022.969
			c454.903,621.747,1240.133,862.07,1946.198,632.73"/>
		<g>
			
				<line fill="none" stroke="#FFFFFF" stroke-width="11.6155" stroke-miterlimit="10" x1="496.092" y1="3092.369" x2="503.886" y2="3103.055"/>
			<path fill="none" stroke="#FFFFFF" stroke-width="11.6155" stroke-miterlimit="10" stroke-dasharray="28.1349,42.2023" d="
				M528.039,3134.993c447.576,583.82,1231.819,875.668,2014.335,642.903"/>
			
				<line fill="none" stroke="#FFFFFF" stroke-width="11.6155" stroke-miterlimit="10" x1="2561.494" y1="3771.959" x2="2574.074" y2="3767.875"/>
		</g>
	</g>
	<g>
		<path d="M610.237,3009.299l-228.289,166.14c-509.442-698.746-509.085-1652.535,0-2350.867l228.289,166.141
			C172.702,1590.352,173.48,2410.677,610.237,3009.299z"/>
		<path fill="none" stroke="#FFFFFF" stroke-width="4.6462" stroke-miterlimit="10" d="M400.731,838.243
			c-503.034,689.999-503.607,1632.792,0,2323.527"/>
		<path fill="none" stroke="#FFFFFF" stroke-width="4.6462" stroke-miterlimit="10" d="M591.453,977.044
			c-442.979,607.114-443.23,1438.418,0,2045.926"/>
		<g>
			
				<line fill="none" stroke="#FFFFFF" stroke-width="11.6155" stroke-miterlimit="10" x1="496.092" y1="907.643" x2="488.298" y2="918.329"/>
			<path fill="none" stroke="#FFFFFF" stroke-width="11.6155" stroke-miterlimit="10" stroke-dasharray="28.1349,42.2023" d="
				M465.343,951.14c-413.462,596.486-454.35,1442.323,11.407,2114.189"/>
			
				<line fill="none" stroke="#FFFFFF" stroke-width="11.6155" stroke-miterlimit="10" x1="488.298" y1="3081.683" x2="496.092" y2="3092.369"/>
		</g>
	</g>
	<g>
		<path d="M610.237,990.713L381.948,824.573c527.568-720.176,1431.31-987.77,2235.724-726.707l-87.195,268.544
			C1843.841,143.367,1064.966,369.131,610.237,990.713z"/>
		<path fill="none" stroke="#FFFFFF" stroke-width="4.6462" stroke-miterlimit="10" d="M2610.497,119.961
			c-785.714-254.997-1682.79-1.162-2209.766,718.282"/>
		<path fill="none" stroke="#FFFFFF" stroke-width="4.6462" stroke-miterlimit="10" d="M2537.651,344.314
			c-703.824-228.588-1489.861,9.023-1946.198,632.73"/>
		<g>
			
				<line fill="none" stroke="#FFFFFF" stroke-width="11.6155" stroke-miterlimit="10" x1="2574.074" y1="232.137" x2="2561.495" y2="228.053"/>
			<path fill="none" stroke="#FFFFFF" stroke-width="11.6155" stroke-miterlimit="10" stroke-dasharray="28.1349,42.2023" d="
				M2523.183,216.407C1818.111,6.669,1013.116,232.319,515.857,880.909"/>
			
				<line fill="none" stroke="#FFFFFF" stroke-width="11.6155" stroke-miterlimit="10" x1="503.886" y1="896.957" x2="496.092" y2="907.643"/>
		</g>
	</g>
	<g>
		<path d="M2530.477,366.409l87.195-268.544c791.262,257,1370.412,986.22,1381.646,1902.141h-282.345
			C3706.365,1192.268,3189.719,580.325,2530.477,366.409z"/>
		<path fill="none" stroke="#FFFFFF" stroke-width="4.6462" stroke-miterlimit="10" d="M3976.086,2000.006
			c-11.429-925.526-603.775-1632.637-1365.589-1880.045"/>
		<path fill="none" stroke="#FFFFFF" stroke-width="4.6462" stroke-miterlimit="10" d="M3740.204,2000.006
			c-10.519-805.443-522.19-1434.896-1202.552-1655.693"/>
		<g>
			
				<line fill="none" stroke="#FFFFFF" stroke-width="11.6155" stroke-miterlimit="10" x1="3858.145" y1="2000.006" x2="3857.978" y2="1986.781"/>
			<path fill="none" stroke="#FFFFFF" stroke-width="11.6155" stroke-miterlimit="10" stroke-dasharray="28.1349,42.2023" d="
				M3857.337,1946.743c-30.384-799.888-531.184-1450.307-1251.722-1704.093"/>
			
				<line fill="none" stroke="#FFFFFF" stroke-width="11.6155" stroke-miterlimit="10" x1="2586.654" y1="236.222" x2="2574.074" y2="232.138"/>
		</g>
	</g>
</g>
</svg>
